<?xml version="1.0" encoding="iso-8859-1"?>
<!-- Generator: Adobe Illustrator 19.1.0, SVG Export Plug-In . SVG Version: 6.00 Build 0)  -->
<svg version="1.1" id="Capa_1" xmlns="http://www.w3.org/2000/svg" xmlns:xlink="http://www.w3.org/1999/xlink" x="0px" y="0px"
	 viewBox="0 0 452.696 452.696" style="enable-background:new 0 0 452.696 452.696;" xml:space="preserve">
<g>
	<g>
		<path d="M88.024,440.121c0,7.545,5.03,12.575,12.575,12.575h15.09h223.833h12.575c7.545,0,12.575-5.03,12.575-12.575V150.899
			H88.024V440.121z M289.223,201.198c0-7.545,5.03-12.575,12.575-12.575s12.575,5.03,12.575,12.575v176.049
			c0,7.545-5.03,12.575-12.575,12.575s-12.575-5.03-12.575-12.575V201.198z M213.773,201.198c0-7.545,5.03-12.575,12.575-12.575
			c7.545,0,12.575,5.03,12.575,12.575v176.049c0,7.545-5.03,12.575-12.575,12.575c-7.545,0-12.575-5.03-12.575-12.575V201.198z
			 M138.324,201.198c0-7.545,5.03-12.575,12.575-12.575c7.545,0,12.575,5.03,12.575,12.575v176.049
			c0,7.545-5.03,12.575-12.575,12.575c-7.545,0-12.575-5.03-12.575-12.575V201.198z"/>
		<path d="M402.397,50.3h-88.024H138.324H50.3c-7.545,0-12.575,5.03-12.575,12.575v62.874h377.247V62.874
			C414.972,55.33,409.942,50.3,402.397,50.3z"/>
		<path d="M314.372,12.575C314.372,5.03,309.342,0,301.798,0H150.899c-7.545,0-12.575,5.03-12.575,12.575V25.15h176.049V12.575z"/>
	</g>
</g>
<g>
</g>
<g>
</g>
<g>
</g>
<g>
</g>
<g>
</g>
<g>
</g>
<g>
</g>
<g>
</g>
<g>
</g>
<g>
</g>
<g>
</g>
<g>
</g>
<g>
</g>
<g>
</g>
<g>
</g>
</svg>
