<?xml version="1.0" standalone="no"?>
<!DOCTYPE svg PUBLIC "-//W3C//DTD SVG 20010904//EN"
 "http://www.w3.org/TR/2001/REC-SVG-20010904/DTD/svg10.dtd">
<svg version="1.0" xmlns="http://www.w3.org/2000/svg"
 width="140.000000pt" height="140.000000pt" viewBox="0 0 140.000000 140.000000"
 preserveAspectRatio="xMidYMid meet">
<metadata>
Created by potrace 1.13, written by Peter Selinger 2001-2015
</metadata>
<g transform="translate(0.000000,140.000000) scale(0.100000,-0.100000)"
fill="#000000" stroke="none">
<path d="M153 1390 c-48 -11 -103 -57 -124 -104 -17 -38 -19 -75 -19 -585 0
-535 0 -545 21 -589 13 -26 38 -54 62 -70 l41 -27 566 0 566 0 42 28 c23 15
51 45 62 67 19 38 20 57 20 589 0 364 -4 559 -11 578 -13 35 -54 79 -94 101
-27 15 -87 17 -565 19 -294 1 -550 -2 -567 -7z m1123 -69 c65 -39 64 -32 64
-620 0 -549 -2 -581 -41 -581 -43 0 -49 11 -21 37 22 20 24 26 12 33 -12 8
-11 10 5 10 16 0 17 2 5 10 -8 5 -25 7 -37 3 -27 -6 -73 4 -73 16 0 5 13 8 29
7 16 -1 29 2 28 7 -1 6 13 14 32 19 45 12 29 27 -37 35 -29 3 -59 11 -68 18
-13 9 -9 10 20 7 43 -5 93 13 106 38 9 16 3 19 -43 26 -28 4 -43 10 -32 12 21
4 55 30 55 42 0 4 -15 6 -33 5 -19 -2 -40 1 -48 6 -12 8 -12 10 1 8 29 -3 38
1 43 22 5 18 2 20 -19 16 -20 -4 -23 -1 -19 14 5 16 1 19 -32 20 -21 1 -30 3
-20 6 10 3 29 15 44 29 l25 24 -28 11 c-16 7 -42 11 -59 11 l-30 -1 35 11 c38
13 63 38 51 51 -4 4 -31 10 -60 14 -28 3 -54 9 -56 14 -3 4 8 5 23 3 20 -3 36
2 55 19 34 28 27 38 -23 31 -24 -4 -41 -1 -45 7 -5 7 -4 10 3 5 6 -3 27 1 46
11 36 17 47 32 24 34 -7 1 -17 2 -23 4 -5 1 -17 3 -25 4 -12 1 -12 4 3 12 20
12 23 29 4 29 -8 0 -19 11 -25 25 -6 14 -8 25 -3 25 5 0 8 13 7 30 0 21 -5 29
-16 27 -11 -1 -14 5 -12 25 3 23 0 26 -20 20 -21 -5 -22 -4 -9 11 11 15 11 17
-2 17 -8 0 -18 6 -20 13 -3 7 -6 4 -6 -6 -1 -10 -5 -15 -11 -12 -5 3 -10 2
-10 -4 0 -5 5 -13 10 -16 6 -3 10 -12 9 -18 0 -9 -2 -9 -6 1 -2 6 -11 12 -18
12 -9 0 -12 -11 -10 -35 3 -31 1 -35 -15 -30 -16 5 -19 1 -17 -24 1 -22 7 -31
19 -31 9 0 20 -5 23 -11 7 -10 -44 -7 -62 4 -5 3 -16 0 -25 -7 -15 -11 -14
-14 15 -31 21 -12 26 -20 17 -23 -45 -12 -46 -13 -21 -33 18 -15 20 -19 7 -19
-11 0 -14 -5 -10 -12 4 -7 3 -8 -4 -4 -7 4 -19 3 -27 -2 -13 -6 -8 -12 21 -28
45 -23 57 -47 23 -44 -45 4 -58 0 -53 -14 3 -7 15 -18 27 -25 21 -10 21 -11 2
-10 -44 3 -47 -1 -21 -22 14 -11 30 -17 36 -14 5 3 10 1 10 -4 0 -6 -20 -16
-45 -22 -36 -9 -43 -14 -34 -25 6 -7 26 -16 45 -20 28 -5 31 -8 19 -20 -7 -8
-29 -14 -49 -14 -19 0 -37 -4 -41 -10 -8 -13 33 -37 80 -46 32 -6 36 -8 19
-15 -11 -4 -39 -6 -62 -5 -23 1 -42 0 -42 -3 0 -13 35 -41 52 -41 10 0 18 -4
18 -9 0 -12 -29 -23 -41 -15 -5 3 -24 0 -43 -7 -31 -11 -32 -13 -17 -31 8 -10
22 -18 31 -18 12 -1 12 -3 -3 -14 -17 -13 -17 -15 5 -30 l22 -16 -26 0 c-26 0
-51 -21 -32 -27 5 -2 16 -8 24 -14 11 -8 12 -12 2 -16 -7 -2 -19 -11 -27 -19
-11 -12 -18 -12 -34 -2 -15 9 -25 9 -46 0 -14 -7 -24 -16 -20 -21 3 -5 0 -13
-6 -17 -9 -5 -6 -11 7 -21 16 -12 17 -15 4 -23 -26 -17 -56 -11 -68 13 -13 25
-57 182 -68 240 l-6 38 36 -6 c32 -6 36 -5 36 13 0 11 7 22 15 26 25 9 76 -5
88 -25 7 -11 16 -19 21 -19 6 0 5 5 -2 12 -17 17 -15 28 6 29 16 1 16 2 -1 6
-14 4 -12 8 15 27 44 29 56 64 36 108 -9 18 -19 43 -22 55 -8 27 -32 47 -45
38 -7 -4 -6 -14 3 -28 7 -12 16 -41 20 -65 9 -61 -12 -65 -74 -13 l-49 41 -98
-6 c-54 -4 -104 -12 -112 -18 -9 -7 -49 -10 -101 -9 -83 2 -90 1 -129 -27 -56
-41 -81 -94 -81 -170 0 -34 -5 -70 -11 -82 -6 -11 -8 -22 -5 -25 3 -3 11 7 18
21 12 27 12 26 35 -41 37 -110 29 -151 -22 -111 -55 43 -55 43 -55 610 0 509
0 523 21 565 36 75 9 72 619 73 516 0 547 -1 576 -19z m-882 -1097 c10 -25 7
-124 -4 -145 -9 -15 -22 -19 -67 -19 -71 0 -93 17 -93 73 0 51 30 87 74 88 17
0 40 4 51 9 29 12 32 12 39 -6z"/>
<path d="M333 1303 c-45 -9 -80 -68 -73 -128 7 -68 80 -54 80 15 0 30 16 16
23 -19 l6 -30 78 5 c111 7 113 8 122 22 6 11 9 10 13 -5 4 -13 13 -18 39 -16
19 1 53 2 76 2 33 1 43 5 48 22 5 15 10 17 20 9 15 -13 45 -3 45 16 0 8 -6 11
-15 8 -10 -4 -15 0 -15 14 0 29 -54 24 -58 -6 -2 -11 -10 -26 -19 -34 -14 -11
-15 -9 -9 19 6 27 4 32 -15 38 -23 8 -31 1 -67 -51 -11 -17 -12 -15 -7 13 7
34 -11 55 -26 32 -7 -11 -9 -11 -9 -1 0 25 -25 6 -30 -23 -3 -16 -10 -30 -17
-32 -8 -3 -10 6 -6 31 7 45 -9 47 -28 4 -8 -17 -21 -34 -29 -37 -11 -3 -10 0
3 13 21 21 22 45 2 52 -21 8 -43 -12 -47 -43 -4 -37 -21 -39 -35 -4 -9 26 -8
30 13 40 58 26 6 87 -63 74z"/>
<path d="M912 1294 c-55 -23 -92 -110 -60 -142 16 -16 54 -15 71 3 13 13 16
13 21 -1 3 -9 13 -14 21 -11 11 5 12 1 6 -17 -6 -13 -5 -29 1 -40 9 -17 11
-17 29 0 10 9 19 28 19 41 0 14 6 23 16 23 12 0 14 -7 9 -28 -9 -42 17 -61 39
-30 9 12 16 30 16 40 0 11 9 18 27 20 14 2 28 9 31 17 3 9 -2 11 -17 6 -20 -6
-21 -5 -10 13 15 23 6 52 -16 52 -9 0 -25 -16 -36 -35 -12 -19 -22 -35 -24
-35 -2 0 -2 15 -1 33 1 26 -3 32 -19 32 -11 0 -25 -11 -31 -24 -7 -13 -20 -29
-30 -34 -15 -8 -16 -6 -10 14 4 13 10 42 13 65 4 35 2 42 -14 46 -11 3 -34 -1
-51 -8z"/>
<path d="M485 1066 c-95 -43 -142 -173 -96 -265 42 -82 113 -119 207 -108 183
20 229 277 65 364 -50 26 -128 30 -176 9z m165 -26 c63 -32 85 -73 85 -155 0
-57 -4 -76 -23 -103 -46 -64 -154 -92 -221 -58 -47 25 -89 81 -96 129 -22 146
124 254 255 187z"/>
<path d="M190 945 c0 -92 -3 -108 -20 -125 -29 -29 -27 -54 4 -46 18 4 28 1
35 -11 12 -22 28 -9 33 27 3 22 7 25 38 22 44 -5 44 -5 33 -39 -9 -27 -12 -28
-99 -34 -87 -5 -87 -5 -21 -7 52 -2 67 -5 67 -17 0 -11 -12 -15 -50 -15 -27 0
-50 -4 -50 -10 0 -5 23 -10 50 -10 43 0 50 -3 50 -20 0 -17 -7 -20 -50 -20
-33 0 -50 -4 -50 -12 0 -7 -3 -22 -6 -33 -5 -19 0 -20 120 -20 138 0 143 3
101 53 -27 33 -31 59 -14 106 10 26 7 41 -15 95 -14 36 -26 72 -26 82 0 11
-10 20 -29 24 -34 7 -55 43 -49 84 4 28 2 31 -24 31 l-28 0 0 -105z"/>
</g>
</svg>
